<svg xmlns="http://www.w3.org/2000/svg" viewBox="0 0 24 24"><path d="M19.1 6a.1.1 0 0 0-.1-.1c-2.287 0-4.975-1.321-6.824-2.935l-.04-.028a.27.27 0 0 0-.312.028C9.986 4.568 7.288 5.9 5 5.9a.1.1 0 0 0-.1.1v7c0 2.262.781 3.913 2.015 5.177 1.101 1.128 2.594 1.978 4.304 2.64l.745.273.02.007a.1.1 0 0 0 .067 0c2.012-.702 3.779-1.63 5.035-2.918C18.319 16.913 19.1 15.262 19.1 13zm-4.737 3.364a.9.9 0 0 1 1.274 1.273l-4 4a.9.9 0 0 1-1.274 0l-2-2a.9.9 0 0 1 1.274-1.273L11 12.727zM20.9 13c0 2.738-.97 4.837-2.526 6.435-1.532 1.572-3.594 2.618-5.738 3.366l-.007.002a1.9 1.9 0 0 1-1.253-.013v.001l-.02-.007c-2.143-.743-4.2-1.783-5.729-3.35C4.068 17.839 3.1 15.739 3.1 13V6A1.9 1.9 0 0 1 5 4.1c1.709 0 4.006-1.064 5.648-2.497l.007-.007a2.07 2.07 0 0 1 2.544-.113l.146.113.007.007C15.003 3.046 17.292 4.1 19 4.1A1.9 1.9 0 0 1 20.9 6z"/></svg>