<svg xmlns="http://www.w3.org/2000/svg" viewBox="0 0 24 24"><path d="M13.614 7a1.8 1.8 0 0 1 .514-1.26l2.851-2.85a5.2 5.2 0 0 0-5.719 7.25.8.8 0 0 1-.164.895l-7.909 7.91a1.323 1.323 0 0 0-.001 1.869 1.323 1.323 0 0 0 1.868 0l7.91-7.91.094-.08a.8.8 0 0 1 .802-.083 5.2 5.2 0 0 0 7.249-5.718l-2.844 2.842-.005.006a1.8 1.8 0 0 1-2.52 0L14.128 8.26A1.8 1.8 0 0 1 13.614 7m1.6 0c0 .051.02.1.055.137l1.59 1.592.065.042a.2.2 0 0 0 .216-.042l3.1-3.1c.678-.678 2.01-.56 2.32.572l.06.234a6.8 6.8 0 0 1-8.899 7.973l-7.535 7.538a2.923 2.923 0 0 1-4.13 0 2.923 2.923 0 0 1 0-4.131l7.536-7.538A6.799 6.799 0 0 1 17.8 1.44c1.134.312 1.248 1.644.573 2.32l-3.102 3.1a.2.2 0 0 0-.057.14"/></svg>